<?xml version="1.0" encoding="UTF-8"?>
<!-- Generator: Adobe Illustrator 22.1.0, SVG Export Plug-In . SVG Version: 6.00 Build 0)  -->
<svg version="1.1" id="Layer_1" xmlns="http://www.w3.org/2000/svg" xmlns:xlink="http://www.w3.org/1999/xlink" x="0px" y="0px" viewBox="0 0 395.7 204.9" style="enable-background:new 0 0 395.7 204.9;" xml:space="preserve">
<g id="Layer_x0020_1">
	<g>
		<path d="M199.4,111.6c-4,0-6.3,3.2-6.3,8.5h12.2C205.4,114.8,203,111.6,199.4,111.6z"/>
		<path d="M389.9,32.7c-3.9-0.6-7.7-1.3-11.6-2L216.9,2.2c-16.2-2.9-14.9-3.9-19.8,2.9c-13.2,18.4-26,37.3-39.1,55.8l-11.2,16    c-2.5,3.5-3.7,4.8-1.8,10c1.6,4.3,3.1,8.8,4.7,13.2l2.6,7.2l7.1-1L165,124c1.1,3.4,2,7.3,2,7.3h0.1c0,0,0.7-3.9,2-7.6l5.4-17.5    l7.6,0.8l-12,33h-5.9l0.8,2.3l-0.1-0.3c2.9,8.3,12.5,34.6,13.6,37.5c1.7,4.7,2.6,4.8,7.9,5.7l103.8,18.3c2,0.4,3.7,0.7,5.8,1.1    c2.6,0.4,3.9,0.2,4-2.4c0.3-5.5,0-20.5,0-27c0-3.4,0.1-2.9,1.6-5.1l14-20c7.3-10.7,15-21.1,22.4-32c18-26.5,37.6-53.2,55.8-79.7    C397.2,33.6,396.3,33.9,389.9,32.7z M212.8,125.4h-19.6v0.5c0,4.6,1.7,9.4,8.1,9.4c3.1,0,5.7-1.1,8.2-3.2l2.8,4.3    c-3.4,2.9-7.4,4.4-11.8,4.4c-9.3,0-15.2-6.7-15.2-17.2c0-5.8,1.2-9.6,4.1-12.9c2.7-3.1,5.9-4.4,10.1-4.4c3.2,0,6.3,0.9,9,3.4    c2.9,2.6,4.3,6.6,4.3,14.3V125.4z M227.7,140h-7.2v-32.4l7.2-1.3V140z M224.1,102.1c-2.6,0-4.6-2.1-4.6-4.7c0-2.7,2.1-4.9,4.8-4.9    c2.5,0,4.7,2.1,4.7,4.9C228.9,100,226.7,102.1,224.1,102.1z M245,140.7c-7.2,0-7.2-6.5-7.2-9.3v-28c0-4.5-0.2-6.9-0.6-9.7l7.4-1.6    c0.5,2,0.6,4.8,0.6,9.1V129c0,4.4,0.2,5.2,0.7,5.9c0.4,0.6,1.5,0.9,2.3,0.5l1.2,4.4C247.9,140.4,246.6,140.7,245,140.7z     M262.6,140h-7.2v-32.4l7.2-1.3V140z M258.9,102.1c-2.6,0-4.6-2.1-4.6-4.7c0-2.7,2-4.9,4.7-4.9c2.6,0,4.7,2.1,4.7,4.9    C263.7,100,261.6,102.1,258.9,102.1z M297.6,112.3c-1.4,0-2.3-0.3-2.6-0.3c0.2,0.2,2.2,2.3,2.2,5.7c0,5.7-4.8,10.1-12.5,10.1    c-2.3,0.9-4.4,2.1-4.4,3.2c0,1.2,0.5,1.4,8.2,1.4c5.3,0,10.9,2.6,10.9,9.4c0,7-5.9,10.8-14.6,10.8c-8.5,0-14.7-2.8-14.7-9    c0-1.5,0.6-3.5,0.6-3.5h6.8c0,0-0.5,1.3-0.5,2.3c0,3.1,2.6,4.7,7.2,4.7c5.1,0,7.8-2,7.8-5.1c0-3.6-3-4.6-9.1-4.6    c-8.9,0-10.8-1.7-10.8-5c0-3.2,2.7-4.6,6.3-5.7c-5-1.4-7.5-4.6-7.5-9.3c0-6.7,5.3-11.2,13.2-11.2c4.7,0,7.3,1.7,10,1.7    c2.1,0,4.2-0.8,6-2.3l3.3,4.5C301.6,111.7,299.9,112.3,297.6,112.3z"/>
		<path d="M284,111.6c-3.7,0-5.7,2-5.7,5.7c0,3.7,2.1,5.5,5.7,5.5c3.7,0,5.7-2,5.7-5.6C289.6,113.6,287.8,111.6,284,111.6z"/>
	</g>
	<path d="M8.8,140.1h9c0.4-3.4,1.5-7.5,2.2-10.9c0.6-2.7,1.3-9.3,2-11.3c0.4,1.1,0.7,4.3,0.9,5.8c1,6,2.8,11.1,3.7,16.5h8.6l9-33.1   l-8.3,0c-0.7,0.2-0.6,1.1-1,2.5l-1.9,8.4c-0.5,2.3-1.5,10.3-2.1,11.6c-1.1-7.8-2.8-14.9-4.2-22.5h-8.5c-0.7,0.2-2.6,9.9-2.9,11.1   c-0.9,3.8-1.7,8.1-2,12.1c-0.7-3.7-1.2-7.9-2-11.6c-0.8-3.7-2.1-7.9-2.6-11.6H0L8.8,140.1z"/>
	<path d="M78.5,121.4c-0.6-9.8-7.3-15.8-17.7-14.7c-9.8,1-14.8,7.9-14.1,18.8c0.6,9.6,7.6,15.7,18,14.8   C74.5,139.4,79.1,132,78.5,121.4z M64.3,134.3c-6.3,1.5-8.3-3.3-8.4-8.9c-0.2-5.5,0.2-11.4,5-12.7c6.2-1.8,8,3.6,8.3,8.9   C69.3,126.8,68.9,133.2,64.3,134.3z"/>
	<path d="M115.4,121.4c-0.7-9.8-7.2-15.7-17.7-14.7c-9.9,0.9-14.8,8.1-14.1,18.7c0.6,9.6,7.5,15.7,17.8,14.9   C111.3,139.5,116.1,131.9,115.4,121.4z M101.2,134.3c-6.4,1.6-8.3-3.4-8.5-8.9c-0.2-5.5,0.3-11.5,5-12.8c6.2-1.7,8,3.6,8.3,8.9   C106.2,126.7,105.8,133.2,101.2,134.3z"/>
	<path d="M121.4,139.8h7.7l-0.6-21.9l4.9,11.1c0.8,1.7,4.3,10,5,10.8l8.4,0v-32.9l-7.6,0.1c0,6.7,0.2,12.9,0.5,19.5   c-0.2-0.2-0.2-0.1-0.4-0.5c-0.2-0.4-0.1-0.2-0.3-0.7c-0.2-0.6-0.3-1-0.5-1.4c-0.8-2.1-7.6-16.7-8.5-17h-8.6V139.8z"/>
</g>
</svg>